<svg width="128" height="128" viewBox="0 0 128 128" fill="none" xmlns="http://www.w3.org/2000/svg">
<!-- 背景渐变 -->
<defs>
<linearGradient id="bgGradient" x1="0%" y1="0%" x2="100%" y2="100%">
<stop offset="0%" style="stop-color:#2563eb;stop-opacity:1" />
<stop offset="100%" style="stop-color:#1e40af;stop-opacity:1" />
</linearGradient>
</defs>
<!-- 主背景 -->
<rect width="128" height="128" rx="20" fill="url(#bgGradient)"/>
<!-- Notion 风格的 N 字母 -->
<path d="M30 30L30 95L40 95L65 50L65 95L75 95L75 30L65 30L40 75L40 30L30 30Z" fill="white"/>
<!-- 微信风格的对话框气泡 -->
<g transform="translate(70, 50)">
<rect x="0" y="0" width="35" height="25" rx="5" fill="#07c160"/>
<path d="M8 25L12 30L16 25" fill="#07c160"/>
<!-- 微信风格的文字线条 -->
<rect x="6" y="6" width="15" height="2" rx="1" fill="white"/>
<rect x="6" y="11" width="23" height="2" rx="1" fill="white"/>
<rect x="6" y="16" width="18" height="2" rx="1" fill="white"/>
</g>
<!-- 底部装饰线 -->
<path d="M20 105L108 105" stroke="white" stroke-width="2" stroke-opacity="0.3"/>
</svg>